<svg xmlns="http://www.w3.org/2000/svg" viewBox="0 0 32 32">
    <path fill="#326CE5" d="M15.9.2l-.2.1c-.5.1-1 .4-1.4.8L7.2 8c-.4.4-.7.9-.8 1.4l-1.3 7.1c-.1.5 0 1.1.2 1.6l3.7 6.4c.3.5.8.9 1.3 1l7.1 1.3c.5.1 1.1 0 1.6-.2l6.4-3.7c.5-.3.9-.8 1-1.3l1.3-7.1c.1-.5 0-1.1-.2-1.6l-3.7-6.4c-.3-.5-.8-.9-1.3-1L15.9.2zM16 4.2l5.3 1c.2 0 .3.2.4.4l2.8 4.8c.1.2.1.4.1.5l-1 5.3c0 .2-.2.3-.4.4l-4.8 2.8c-.2.1-.4.1-.5.1l-5.3-1c-.2 0-.3-.2-.4-.4l-2.8-4.8c-.1-.2-.1-.4-.1-.5l1-5.3c0-.2.2-.3.4-.4l4.8-2.8c.2-.1.4-.1.5-.1z"/>
</svg> 