<svg xmlns="http://www.w3.org/2000/svg" viewBox="0 0 32 32">
    <path fill="#DC382D" d="M32 14.1c0-.9-1-1.6-2.9-2.1l-.3-.1c-2.7-.7-16.8-4-17.2-4.1-.4-.1-.8 0-1.1.2L7.6 9.8c-.3.2-.5.5-.5.8v2.8c0 .3.2.6.5.8l2.9 1.8c.3.2.7.2 1.1.2.4-.1 14.5-3.4 17.2-4.1l.3-.1c1.9-.5 2.9-1.2 2.9-2.1zm-2.9-6.3l-.3-.1c-2.7-.7-16.8-4-17.2-4.1-.4-.1-.8 0-1.1.2L7.6 5.6c-.3.2-.5.5-.5.8v2.8c0 .3.2.6.5.8l2.9 1.8c.3.2.7.2 1.1.2.4-.1 14.5-3.4 17.2-4.1l.3-.1c1.9-.5 2.9-1.2 2.9-2.1s-1-1.6-2.9-2.1zm0 12.6l-.3-.1c-2.7-.7-16.8-4-17.2-4.1-.4-.1-.8 0-1.1.2l-2.9 1.8c-.3.2-.5.5-.5.8v2.8c0 .3.2.6.5.8l2.9 1.8c.3.2.7.2 1.1.2.4-.1 14.5-3.4 17.2-4.1l.3-.1c1.9-.5 2.9-1.2 2.9-2.1s-1-1.6-2.9-2.1z"/>
</svg> 